<svg width="79" height="29" viewBox="0 0 79 29" fill="none" xmlns="https://www.w3.org/2000/svg">
<path d="M17.756 24.624L0.8 17.172V15.372L17.756 6.91199V9.71999L4.184 16.128L17.756 21.816V24.624ZM33.2096 26.028C35.0816 24.12 36.0536 21.852 36.0536 19.224V-1.26362e-05H31.1936V19.224C31.1936 20.556 30.7256 21.672 29.7536 22.608L31.8776 24.732L33.2096 26.028ZM23.0576 22.572L19.6016 26.028C21.4736 27.864 23.7416 28.8 26.4056 28.8V23.976C25.1096 23.976 23.9936 23.508 23.0576 22.572ZM31.8776 24.732L33.2096 26.028L31.8776 24.732ZM41.75 -1.26362e-05V4.82399V28.8H46.574V4.82399H56.15V-1.26362e-05H41.75ZM61.9016 21.816L75.4736 16.164L61.9016 9.71999V6.91199L78.8576 15.372V17.172L61.9016 24.624V21.816Z" fill="white"/>
</svg>
